<?xml version="1.0" encoding="UTF-8" standalone="no"?>
<!-- Created with Inkscape (http://www.inkscape.org/) -->

<svg
   width="686.2453mm"
   height="129.64583mm"
   viewBox="0 0 686.24531 129.64583"
   version="1.1"
   id="svg5"
   sodipodi:docname="nrwl_white_logo.svg"
   inkscape:version="1.1 (c68e22c387, 2021-05-23)"
   xmlns:inkscape="http://www.inkscape.org/namespaces/inkscape"
   xmlns:sodipodi="http://sodipodi.sourceforge.net/DTD/sodipodi-0.dtd"
   xmlns="http://www.w3.org/2000/svg"
   xmlns:svg="http://www.w3.org/2000/svg">
  <sodipodi:namedview
     id="namedview7"
     pagecolor="#ffffff"
     bordercolor="#666666"
     borderopacity="1.0"
     inkscape:pageshadow="2"
     inkscape:pageopacity="0.0"
     inkscape:pagecheckerboard="0"
     inkscape:document-units="mm"
     showgrid="false"
     inkscape:zoom="0.18529742"
     inkscape:cx="1362.6741"
     inkscape:cy="-375.07268"
     inkscape:window-width="1920"
     inkscape:window-height="1017"
     inkscape:window-x="1912"
     inkscape:window-y="-8"
     inkscape:window-maximized="1"
     inkscape:current-layer="layer1" />
  <defs
     id="defs2" />
  <g
     inkscape:label="Layer 1"
     inkscape:groupmode="layer"
     id="layer1"
     transform="translate(-47.465546,-32.98718)">
    <g
       id="g61"
       transform="matrix(0.26458333,0,0,0.26458333,45.481171,32.98718)"
       style="fill:#ffffff">
      <path
         id="XMLID_110_"
         d="M 482.5,70 H 351.555 C 326.113,28.072 280.023,0 227.5,0 168.736,0 113.489,22.884 71.937,64.437 30.384,105.989 7.5,161.235 7.5,220 7.5,278.765 30.384,334.011 71.937,375.563 113.489,417.116 168.736,440 227.5,440 h 35.312 c 16.437,30.683 48.263,50 83.676,50 h 11.581 L 361,478.796 c 2.063,-7.885 3.108,-16.041 3.108,-24.241 0,-21.723 -7.461,-42.743 -20.837,-59.555 13.376,-16.812 20.837,-37.832 20.837,-59.555 0,-8.2 -1.046,-16.356 -3.108,-24.241 L 358.068,300 h -11.581 c -35.252,0 -66.945,19.14 -83.446,49.576 -43.073,-4.191 -77.814,-37.278 -84.55,-79.576 h 66.818 v -15 c 0,-28.388 -13.46,-54.776 -35.479,-71.583 C 226.999,168.378 249.009,160 272.309,160 H 372.5 v -15 c 0,-15.703 -2.519,-30.827 -7.157,-45 H 482.5 Z m -210.191,60 c -38.346,0 -74.036,17.241 -97.917,47.302 l -11.977,15.076 17.547,7.925 c 16.79,7.584 28.934,22.363 33.432,39.697 h -96.085 v 30 h 30.895 c 7.431,61.895 60.254,110.024 124.112,110.024 h 10.112 l 3.793,-9.375 c 8.391,-20.74 26.42,-35.316 47.751,-39.452 0.09,1.412 0.136,2.829 0.136,4.248 0,18.396 -7.804,36.063 -21.41,48.471 L 300.541,395 l 12.156,11.084 c 13.606,12.407 21.41,30.074 21.41,48.471 0,1.419 -0.046,2.836 -0.136,4.247 -21.323,-4.135 -39.35,-18.703 -47.743,-39.432 L 282.434,410 H 227.5 c -104.767,0 -190,-85.233 -190,-190 0,-104.767 85.233,-190 190,-190 58.329,0 106.655,43.648 114.026,100 z"
         style="fill:#ffffff" />
      <g
         id="g10"
         style="fill:#ffffff">
</g>
      <g
         id="g12"
         style="fill:#ffffff">
</g>
      <g
         id="g14"
         style="fill:#ffffff">
</g>
      <g
         id="g16"
         style="fill:#ffffff">
</g>
      <g
         id="g18"
         style="fill:#ffffff">
</g>
      <g
         id="g20"
         style="fill:#ffffff">
</g>
      <g
         id="g22"
         style="fill:#ffffff">
</g>
      <g
         id="g24"
         style="fill:#ffffff">
</g>
      <g
         id="g26"
         style="fill:#ffffff">
</g>
      <g
         id="g28"
         style="fill:#ffffff">
</g>
      <g
         id="g30"
         style="fill:#ffffff">
</g>
      <g
         id="g32"
         style="fill:#ffffff">
</g>
      <g
         id="g34"
         style="fill:#ffffff">
</g>
      <g
         id="g36"
         style="fill:#ffffff">
</g>
      <g
         id="g38"
         style="fill:#ffffff">
</g>
    </g>
    <g
       aria-label="NARWHAL"
       id="text1737"
       style="font-size:105.833px;line-height:1.25;font-family:'Reem Kufi';-inkscape-font-specification:'Reem Kufi, Normal';stroke-width:0.264583;fill:#ffffff">
      <path
         d="m 259.36811,138.79767 -55.87982,-55.773996 0.21167,53.128166 H 192.58749 V 56.988756 h 0.42333 l 55.87983,56.514824 -0.21167,-54.080665 h 11.00663 v 79.374755 z"
         id="path22153"
         style="fill:#ffffff" />
      <path
         d="m 273.54955,136.15184 33.76073,-79.903915 h 0.635 L 341.706,136.15184 h -12.80579 l -7.61998,-19.26161 h -28.78657 l -7.93748,19.26161 z m 22.7541,-28.78658 h 21.27243 L 307.20445,80.907014 Z"
         id="path22155"
         style="fill:#ffffff" />
      <path
         d="m 376.4191,59.422915 q 8.04331,0 14.28746,2.857491 6.24415,2.751658 9.73664,8.149141 3.59832,5.397483 3.59832,13.123292 0,6.561646 -2.85749,12.805793 -2.85749,6.138318 -9.73664,9.419138 l 19.04994,30.37407 H 397.5857 l -17.77994,-27.62241 q -0.84666,0 -1.90499,0 h -11.32413 v 27.62241 H 355.57 V 59.422915 Z m 1.27,38.417379 q 5.92665,0 9.10164,-2.222493 3.28082,-2.328326 4.55082,-5.503316 1.26999,-3.280823 1.26999,-6.138314 0,-2.857491 -1.37583,-6.032481 -1.26999,-3.280823 -4.44498,-5.503316 -3.06916,-2.328326 -8.46664,-2.328326 h -11.74746 v 27.728246 z"
         id="path22157"
         style="fill:#ffffff" />
      <path
         d="m 413.35468,59.846247 h 12.91162 l 19.04994,53.868993 13.12329,-33.760723 -7.93747,-20.10827 h 11.11246 l 20.63744,52.704833 17.88578,-52.704833 h 11.85329 L 481.93446,139.5385 463.94285,93.81864 443.94041,139.75016 Z"
         id="path22159"
         style="fill:#ffffff" />
      <path
         d="m 588.29644,59.422915 v 76.728925 h -11.00663 v -33.23156 h -39.26405 v 33.23156 H 527.01913 V 59.422915 h 11.00663 v 32.914063 h 39.26405 V 59.422915 Z"
         id="path22161"
         style="fill:#ffffff" />
      <path
         d="M 602.16057,136.15184 635.9213,56.247925 h 0.635 l 33.76073,79.903915 h -12.8058 l -7.61997,-19.26161 h -28.78658 l -7.93747,19.26161 z m 22.7541,-28.78658 H 646.1871 L 635.81547,80.907014 Z"
         id="path22163"
         style="fill:#ffffff" />
      <path
         d="m 684.181,59.422915 h 11.00663 v 66.039795 h 38.52321 v 10.68913 H 684.181 Z"
         id="path22165"
         style="fill:#ffffff" />
    </g>
  </g>
</svg>
